<?xml version="1.0" standalone="no"?>
<!DOCTYPE svg PUBLIC "-//W3C//DTD SVG 20010904//EN"
 "http://www.w3.org/TR/2001/REC-SVG-20010904/DTD/svg10.dtd">
<svg version="1.0" xmlns="http://www.w3.org/2000/svg"
 width="225.000000pt" height="225.000000pt" viewBox="0 0 225.000000 225.000000"
 preserveAspectRatio="xMidYMid meet">

<g transform="translate(0.000000,225.000000) scale(0.100000,-0.100000)"
fill="#000000" stroke="none">
<path d="M0 1125 l0 -1125 1125 0 1125 0 0 1125 0 1125 -1125 0 -1125 0 0
-1125z m1243 550 c108 -23 192 -69 277 -155 227 -226 227 -564 0 -790 -177
-177 -422 -218 -648 -108 -91 44 -206 159 -250 250 -110 226 -69 471 108 648
142 142 320 196 513 155z"/>
<path d="M978 1601 c-212 -68 -348 -254 -348 -476 0 -280 215 -495 495 -495
280 0 495 215 495 495 0 222 -138 410 -349 475 -82 26 -214 26 -293 1z m164
-343 l3 -53 70 -5 70 -5 3 -60 c2 -33 -2 -77 -8 -97 -14 -49 -67 -89 -124 -95
l-45 -5 -3 53 -3 54 -70 5 -70 5 0 82 c0 66 4 87 20 109 27 35 81 64 122 64
32 0 32 -1 35 -52z"/>
</g>
</svg>
